<svg width="35" height="35" viewBox="0 0 35 35" fill="none" xmlns="http://www.w3.org/2000/svg">
<path opacity="0.2" d="M10.2853 8.5873L17.3523 10.3537C17.1803 12.7735 16.8145 15.1756 16.2586 17.5369C16.1116 18.0937 15.8561 18.616 15.5068 19.0738C15.1576 19.5317 14.7213 19.9161 14.2231 20.2049C13.725 20.4938 13.1747 20.6815 12.6038 20.7572C12.0329 20.833 11.4527 20.7952 10.8965 20.6462C10.3402 20.4972 9.81884 20.2399 9.36226 19.8889C8.90569 19.538 8.52289 19.1003 8.23583 18.6011C7.94877 18.1019 7.76308 17.5509 7.68943 16.9798C7.61578 16.4086 7.65561 15.8286 7.80664 15.2728C8.44219 12.9782 9.2714 10.7416 10.2853 8.5873ZM27.1934 18.5541C26.5305 16.1729 25.6614 13.854 24.5957 11.6238L17.567 13.382C17.7215 15.6187 18.0551 18.2588 18.7414 20.8182C18.8884 21.3749 19.1439 21.8972 19.4931 22.3551C19.8424 22.8129 20.2787 23.1973 20.7769 23.4862C21.275 23.7751 21.8253 23.9628 22.3962 24.0385C22.9671 24.1142 23.5473 24.0765 24.1035 23.9275C24.6598 23.7785 25.1812 23.5211 25.6377 23.1702C26.0943 22.8192 26.4771 22.3816 26.7642 21.8823C27.0512 21.3831 27.2369 20.8321 27.3106 20.261C27.3842 19.6899 27.3444 19.1098 27.1934 18.5541Z" fill="#154922"/>
<path d="M29.2482 29.2496L26.8352 29.8963L25.4105 24.5793C26.5374 24.015 27.4351 23.0794 27.9524 21.9303C28.4697 20.7811 28.5749 19.4888 28.2502 18.2711C26.5275 11.8453 22.9482 6.20976 22.7965 5.97324C22.673 5.78022 22.492 5.63085 22.2791 5.54622C22.0662 5.46159 21.8321 5.44597 21.6098 5.50156L18.6211 6.24941C18.6211 5.12148 18.5965 4.41328 18.5924 4.32441C18.5815 4.08945 18.4951 3.86426 18.3461 3.68226C18.1971 3.50026 17.9934 3.37114 17.7652 3.31406L13.3902 2.22031C13.1679 2.16472 12.9338 2.18034 12.7209 2.26497C12.508 2.3496 12.327 2.49897 12.2035 2.69199C12.0518 2.92851 8.47246 8.56132 6.7498 14.9967C6.42514 16.2143 6.53033 17.5067 7.04762 18.6559C7.5649 19.805 8.46265 20.7406 9.58945 21.3049L8.16484 26.615L5.75176 25.9684C5.47147 25.8933 5.17284 25.9327 4.92157 26.0778C4.6703 26.2229 4.48697 26.4619 4.41191 26.7422C4.33686 27.0225 4.37622 27.3211 4.52134 27.5724C4.66646 27.8236 4.90545 28.007 5.18574 28.082L11.7482 29.8402C11.8406 29.8645 11.9357 29.8769 12.0312 29.8771C12.2968 29.8774 12.5534 29.7811 12.7532 29.6061C12.953 29.4311 13.0823 29.1894 13.1169 28.9261C13.1516 28.6628 13.0892 28.3959 12.9415 28.1751C12.7938 27.9544 12.5709 27.795 12.3143 27.7266L10.2771 27.1797L11.7018 21.8627C11.8125 21.8695 11.9219 21.8736 12.0312 21.8736C13.1163 21.8706 14.1761 21.5458 15.0766 20.9403C15.977 20.3348 16.6777 19.4758 17.0898 18.4721C17.2512 19.343 17.4453 20.2248 17.6791 21.0998C17.9921 22.2635 18.6799 23.2916 19.6362 24.0249C20.5924 24.7582 21.7637 25.1558 22.9688 25.1562C23.0781 25.1562 23.1875 25.1562 23.2982 25.1453L24.7229 30.4623L22.6857 31.0092C22.4303 31.0786 22.2087 31.2383 22.0621 31.4586C21.9154 31.679 21.8536 31.945 21.8882 32.2074C21.9227 32.4699 22.0513 32.7109 22.25 32.8857C22.4487 33.0606 22.7041 33.1575 22.9688 33.1584C23.0643 33.1582 23.1594 33.1458 23.2518 33.1215L29.8143 31.3633C30.0945 31.2882 30.3335 31.1049 30.4787 30.8536C30.6238 30.6024 30.6631 30.3037 30.5881 30.0234C30.513 29.7431 30.3297 29.5041 30.0784 29.359C29.8272 29.2139 29.5285 29.1745 29.2482 29.2496ZM21.3582 7.81894C21.7383 8.46152 22.3467 9.53339 23.0262 10.8896L18.5938 11.9998C18.5363 10.6326 18.5418 9.50468 18.5596 8.74726C18.5596 8.6707 18.5664 8.59413 18.5705 8.51757L21.3582 7.81894ZM13.6418 4.53769L16.4268 5.23359C16.435 5.81874 16.4268 6.69238 16.398 7.75878C16.3898 7.92421 16.3762 8.19492 16.3666 8.55722C16.3666 8.69394 16.3529 8.83066 16.3447 8.96738L11.8521 7.85175C12.5781 6.38066 13.2398 5.21718 13.6418 4.53769ZM15.199 17.2648C14.9639 18.0954 14.411 18.7998 13.66 19.2255C12.9091 19.6512 12.0207 19.7639 11.1873 19.5391C10.3539 19.3143 9.64263 18.7701 9.20766 18.0245C8.77268 17.2789 8.64902 16.392 8.86348 15.5559C9.40189 13.6112 10.0875 11.7104 10.9143 9.86972L16.1889 11.1877C16.0048 13.2345 15.674 15.2654 15.199 17.2648ZM19.7982 20.5352C19.2626 18.464 18.9054 16.3508 18.7305 14.2187L23.9818 12.9062C24.8545 14.8239 25.5745 16.8075 26.1352 18.8385C26.2539 19.2569 26.2882 19.6948 26.2361 20.1266C26.1841 20.5584 26.0467 20.9756 25.832 21.3538C25.6172 21.732 25.3295 22.0638 24.9854 22.3299C24.6413 22.5959 24.2477 22.7908 23.8276 22.9034C23.4074 23.0159 22.9691 23.0438 22.5381 22.9855C22.1071 22.9271 21.692 22.7836 21.3169 22.5634C20.9419 22.3432 20.6144 22.0505 20.3534 21.7026C20.0924 21.3546 19.9033 20.9582 19.7969 20.5365L19.7982 20.5352ZM25.267 5.9582C25.2026 5.82966 25.1642 5.6897 25.154 5.54632C25.1437 5.40293 25.1619 5.25893 25.2073 5.12256C25.2528 4.98618 25.3247 4.86011 25.4189 4.75154C25.5131 4.64297 25.6278 4.55404 25.7564 4.48984L27.9439 3.39609C28.0725 3.33181 28.2125 3.29349 28.3558 3.2833C28.4992 3.27311 28.6431 3.29126 28.7795 3.33671C28.9158 3.38216 29.0419 3.45402 29.1505 3.54819C29.2591 3.64236 29.348 3.75699 29.4123 3.88554C29.4766 4.01409 29.5149 4.15405 29.5251 4.29741C29.5353 4.44077 29.5171 4.58474 29.4717 4.72109C29.4262 4.85744 29.3544 4.9835 29.2602 5.09208C29.166 5.20066 29.0514 5.28962 28.9229 5.3539L26.7354 6.44765C26.6068 6.51202 26.4669 6.55042 26.3235 6.56066C26.1801 6.57089 26.0361 6.55277 25.8997 6.50731C25.7633 6.46185 25.6373 6.38995 25.5287 6.29573C25.4201 6.20151 25.3312 6.08681 25.267 5.9582ZM31.7188 9.84374C31.7188 10.1338 31.6035 10.412 31.3984 10.6171C31.1933 10.8223 30.9151 10.9375 30.625 10.9375H28.4375C28.1474 10.9375 27.8692 10.8223 27.6641 10.6171C27.459 10.412 27.3438 10.1338 27.3438 9.84374C27.3438 9.55366 27.459 9.27546 27.6641 9.07035C27.8692 8.86523 28.1474 8.74999 28.4375 8.74999H30.625C30.9151 8.74999 31.1933 8.86523 31.3984 9.07035C31.6035 9.27546 31.7188 9.55366 31.7188 9.84374ZM4.48984 2.79179C4.55405 2.66317 4.64298 2.54848 4.75155 2.45426C4.86011 2.36004 4.98619 2.28814 5.12256 2.24268C5.25894 2.19722 5.40293 2.17909 5.54632 2.18933C5.68971 2.19957 5.82967 2.23797 5.9582 2.30234L8.1457 3.39609C8.27426 3.46036 8.38889 3.54933 8.48306 3.65791C8.57723 3.76649 8.64909 3.89255 8.69454 4.0289C8.73999 4.16525 8.75814 4.30921 8.74795 4.45258C8.73776 4.59594 8.69943 4.7359 8.63516 4.86445C8.57088 4.993 8.48191 5.10763 8.37334 5.2018C8.26476 5.29597 8.1387 5.36783 8.00235 5.41328C7.72697 5.50507 7.42642 5.48371 7.1668 5.3539L4.9793 4.26015C4.85068 4.19595 4.73598 4.10702 4.64176 3.99845C4.54754 3.88988 4.47565 3.76381 4.43019 3.62743C4.38473 3.49106 4.3666 3.34706 4.37684 3.20367C4.38707 3.06029 4.42547 2.92032 4.48984 2.79179ZM5.46875 9.84374H3.28125C2.99117 9.84374 2.71297 9.72851 2.50785 9.52339C2.30273 9.31827 2.1875 9.04007 2.1875 8.74999C2.1875 8.45991 2.30273 8.18171 2.50785 7.9766C2.71297 7.77148 2.99117 7.65624 3.28125 7.65624H5.46875C5.75883 7.65624 6.03703 7.77148 6.24215 7.9766C6.44727 8.18171 6.5625 8.45991 6.5625 8.74999C6.5625 9.04007 6.44727 9.31827 6.24215 9.52339C6.03703 9.72851 5.75883 9.84374 5.46875 9.84374Z" fill="#154922"/>
</svg>
