<svg width="33" height="30" viewBox="0 0 33 30" fill="none" xmlns="http://www.w3.org/2000/svg">
<g clip-path="url(#clip0_110_2)">
<path d="M29.765 0.847504C29.6975 0.805004 29.6312 0.772504 29.565 0.738754C28.7537 0.312216 27.8503 0.0907703 26.9337 0.0937541H26.9237C25.9211 0.0952975 24.9363 0.358873 24.0669 0.85835C23.1975 1.35783 22.4738 2.07586 21.9675 2.94125L21.9525 2.96875C21.5426 3.67525 21.2942 4.46368 21.225 5.2775L21.2237 5.29875H9.22372L7.88122 2.0625C7.57981 1.32996 7.02714 0.728844 6.32243 0.367097C5.61772 0.00535012 4.80714 -0.0933372 4.03622 0.0887541L4.05872 0.0837541L0.0012207 1.00625L0.252471 2.11375L4.30997 1.19125C4.81475 1.07621 5.34393 1.14287 5.8044 1.37951C6.26488 1.61615 6.62715 2.00761 6.82747 2.485L6.83247 2.5L7.99747 5.3H0.377471L13.1187 18.0413V27.37C10.16 27.58 8.11872 28.56 8.11872 29.7763V30.0025H20.3987V29.7763C20.3987 28.5613 18.3537 27.5763 15.3987 27.37V18.0413L23.2525 10.1875C23.4987 10.3963 23.7737 10.59 24.0637 10.76L24.0912 10.775C25.4048 11.522 26.9606 11.7187 28.4187 11.3222C29.8769 10.9257 31.1188 9.96816 31.8732 8.65886C32.6276 7.34956 32.8331 5.79489 32.4449 4.33453C32.0567 2.87417 31.1062 1.62682 29.8012 0.865004L29.7737 0.850004L29.765 0.847504ZM31.0137 5.23125L27.8962 5.24L29.4475 2.54C30.2946 3.19353 30.8552 4.15024 31.0112 5.20875L31.0137 5.23125ZM28.4662 1.97L26.915 4.6775L25.3475 1.98625C25.8485 1.77966 26.3855 1.67431 26.9275 1.67625C27.4812 1.67625 28.01 1.78375 28.4937 1.98L28.4662 1.97ZM23.3275 3.75625C23.6 3.2825 23.9475 2.88375 24.3587 2.5625L24.3675 2.55625L25.935 5.2475L22.825 5.25625C22.895 4.695 23.0725 4.1875 23.3375 3.73625L23.3275 3.75625ZM4.19872 6.8825H8.64997L9.26247 8.36625H5.68372L4.19872 6.8825ZM22.8162 8.3675H21.8V8.375H10.4837L9.87122 6.89125H24.2887L22.8162 8.3675ZM25.3725 9.65L26.9237 6.9425L28.4912 9.63375C28.025 9.83125 27.4825 9.94625 26.9137 9.94625C26.3587 9.94625 25.8287 9.8375 25.345 9.63875L25.3725 9.65ZM30.5112 7.8725C30.2479 8.333 29.8982 8.73833 29.4812 9.06625L29.4725 9.0725L27.905 6.38125L31.015 6.37375C30.943 6.90794 30.7685 7.4232 30.5012 7.89125L30.5112 7.8725Z" fill="#154922"/>
</g>
<defs>
<clipPath id="clip0_110_2">
<rect width="32.5" height="30" fill="white"/>
</clipPath>
</defs>
</svg>
